<svg width="24" height="24" viewBox="0 0 24 24" fill="none" xmlns="http://www.w3.org/2000/svg">
  <path d="M16 3H14V5H16V3Z" fill="#FF385C"/>
  <path d="M20 3H18V5H20V3Z" fill="#FF385C"/>
  <path d="M15 16.5C15 14.57 16.57 13 18.5 13C20.43 13 22 14.57 22 16.5C22 18.43 20.43 20 18.5 20C16.57 20 15 18.43 15 16.5ZM18.5 18.5C19.6 18.5 20.5 17.6 20.5 16.5C20.5 15.4 19.6 14.5 18.5 14.5C17.4 14.5 16.5 15.4 16.5 16.5C16.5 17.6 17.4 18.5 18.5 18.5Z" fill="#FF385C"/>
  <path d="M16.36 13.05C16.68 12.73 17.32 12.4 18 12.4V7C17.27 7 16.4 7.19 15.63 7.53C14.93 7.84 14.27 8.31 13.72 8.86L10.33 12.4H13.59C14.27 12.4 14.91 12.73 15.23 13.05C15.55 13.37 16.04 13.37 16.36 13.05Z" fill="#FF385C"/>
  <path d="M10 3H8V5H10V3Z" fill="#FF385C"/>
  <path d="M16 7H14V9H16V7Z" fill="#FF385C"/>
  <path d="M6 7H4V9H6V7Z" fill="#FF385C"/>
  <path d="M10 7H8V9H10V7Z" fill="#FF385C"/>
  <path d="M8 17H2V19H8V17Z" fill="#FF385C"/>
  <path d="M6 3H4V5H6V3Z" fill="#FF385C"/>
  <path d="M10.47 13.93L5.4 19H10.4L10.46 18.93C9.56 17.75 9 16.2 9 14.5C9 14.3 9.01 14.11 9.02 13.93H10.47Z" fill="#FF385C"/>
</svg> 