<svg width="24" height="24" viewBox="0 0 24 24" fill="none" xmlns="http://www.w3.org/2000/svg">
  <path d="M12 2C6.48 2 2 6.48 2 12C2 17.52 6.48 22 12 22C17.52 22 22 17.52 22 12C22 6.48 17.52 2 12 2ZM12 20C7.59 20 4 16.41 4 12C4 7.59 7.59 4 12 4C16.41 4 20 7.59 20 12C20 16.41 16.41 20 12 20Z" fill="#FF385C"/>
  <path d="M10 15.5C10 16.33 10.67 17 11.5 17C12.33 17 13 16.33 13 15.5C13 14.67 10 11.75 10 15.5Z" fill="#FF385C"/>
  <path d="M12.72 13.35C12.26 12.35 11.97 10.96 13 7.99C10.9 9.41 9.29 10.12 8.07 11.39C6.66 12.87 6.97 14.28 7.6 15.19C8.93 17.12 12.86 16.18 14 14.46C13.39 14.23 13.01 13.98 12.72 13.35Z" fill="#FF385C"/>
  <path d="M14.69 13.6C14.35 12.9 14.33 11.93 15.76 9.7C14.53 9.6 13.04 9.19 11.35 9.03C9.38 8.83 8.55 9.77 8.4 10.83C8.06 13.22 11.95 15.3 14.13 15.45C14.07 14.95 13.97 14.23 14.69 13.6Z" fill="#FF385C"/>
</svg> 