<svg width="24" height="24" viewBox="0 0 24 24" fill="none" xmlns="http://www.w3.org/2000/svg">
  <path d="M18 9.5C18 8.12 16.88 7 15.5 7C14.12 7 13 8.12 13 9.5V10H18V9.5Z" fill="#FF385C"/>
  <path d="M19 11H13V14C13 15.1 13.9 16 15 16H17C18.1 16 19 15.1 19 14V11Z" fill="#FF385C"/>
  <path d="M8.5 7C7.12 7 6 8.12 6 9.5V10H11V9.5C11 8.12 9.88 7 8.5 7Z" fill="#FF385C"/>
  <path d="M11 11H5V14C5 15.1 5.9 16 7 16H9C10.1 16 11 15.1 11 14V11Z" fill="#FF385C"/>
  <path d="M22 4V20C22 21.11 21.11 22 20 22H4C2.9 22 2 21.11 2 20V4C2 2.89 2.9 2 4 2H20C21.11 2 22 2.89 22 4ZM20 4H4V20H20V4Z" fill="#FF385C"/>
</svg> 