<svg width="24" height="24" viewBox="0 0 24 24" fill="none" xmlns="http://www.w3.org/2000/svg">
  <path d="M12 2C9.24 2 7 4.24 7 7L7.01 14.9C7.01 15.15 7.08 15.39 7.21 15.6L9.5 20H14.5L16.79 15.6C16.92 15.39 16.99 15.15 16.99 14.9L17 7C17 4.24 14.76 2 12 2ZM12 4C12.55 4 13 4.45 13 5C13 5.55 12.55 6 12 6C11.45 6 11 5.55 11 5C11 4.45 11.45 4 12 4ZM12 7C12.55 7 13 7.45 13 8C13 8.55 12.55 9 12 9C11.45 9 11 8.55 11 8C11 7.45 11.45 7 12 7ZM10 10H14C14.55 10 15 10.45 15 11C15 11.55 14.55 12 14 12H10C9.45 12 9 11.55 9 11C9 10.45 9.45 10 10 10Z" fill="#FF385C"/>
  <path d="M18 20H6V22H18V20Z" fill="#FF385C"/>
</svg> 