<svg width="24" height="24" viewBox="0 0 24 24" fill="none" xmlns="http://www.w3.org/2000/svg">
  <path d="M18 18.5C18.83 18.5 19.5 17.83 19.5 17C19.5 16.17 18.83 15.5 18 15.5C17.17 15.5 16.5 16.17 16.5 17C16.5 17.83 17.17 18.5 18 18.5ZM19.5 9.5H17V12H21.46L19.5 9.5ZM6 18.5C6.83 18.5 7.5 17.83 7.5 17C7.5 16.17 6.83 15.5 6 15.5C5.17 15.5 4.5 16.17 4.5 17C4.5 17.83 5.17 18.5 6 18.5ZM20 8L22.5 11.5V17C22.5 17.55 22.05 18 21.5 18H20.5C20.5 19.66 19.16 21 17.5 21C15.84 21 14.5 19.66 14.5 18H9.5C9.5 19.66 8.16 21 6.5 21C4.84 21 3.5 19.66 3.5 18H2.5C1.95 18 1.5 17.55 1.5 17V5C1.5 4.45 1.95 4 2.5 4H14.5V8H20Z" fill="#FF385C"/>
</svg> 