<svg width="64" height="64" viewBox="0 0 64 64" fill="none" xmlns="http://www.w3.org/2000/svg">
  <rect width="64" height="64" rx="12" fill="#FF385C"/>
  <path d="M32 16C26.4772 16 22 20.4771 22 26C22 31.5228 26.4772 36 32 36C37.5229 36 42 31.5228 42 26C42 20.4772 37.5229 16 32 16ZM32 33.5C27.8579 33.5 24.5 30.1421 24.5 26C24.5 21.8579 27.8579 18.5 32 18.5C36.1421 18.5 39.5 21.8579 39.5 26C39.5 30.1421 36.1421 33.5 32 33.5Z" fill="white"/>
  <path d="M28.5 42C23.2533 42 19 46.2533 19 51.5H21.5C21.5 47.634 24.634 44.5 28.5 44.5H35.5C39.366 44.5 42.5 47.634 42.5 51.5H45C45 46.2533 40.7467 42 35.5 42H28.5Z" fill="white"/>
  <path d="M35 25C35 26.6569 33.6569 28 32 28C30.3431 28 29 26.6569 29 25C29 23.3431 30.3431 22 32 22C33.6569 22 35 23.3431 35 25Z" fill="white"/>
  <path d="M37 30.5C37 28.567 35.433 27 33.5 27H30.5C28.567 27 27 28.567 27 30.5V32H29.5V30.5C29.5 29.9477 29.9477 29.5 30.5 29.5H33.5C34.0523 29.5 34.5 29.9477 34.5 30.5V32H37V30.5Z" fill="white"/>
</svg> 